<svg xmlns="http://www.w3.org/2000/svg" width="894" height="894" viewBox="0 0 894 894"><g><g><path fill="#3e4b68" d="M894 894V791.778L448.758 449.131 894 687.336V564.75L449.932 447.845 894 492.54v-98.23l-444.67 51.916L894 318.832V193.957L449.233 444.504 894 102.222V0h-89.442L447.635 443.775 695.765 0H568.1L446.322 442.624 500.331 0H379.857l64.809 443.214L311.963 0H187.28l255.626 443.308L86.358 0H0v104.596l442.158 340.273L0 208.314v121.75l440.987 116.09L0 394.67v104.663l441.584-51.557L0 574.285v124.02l441.684-248.809L0 789.405V894h86.358L443.28 450.225 195.151 894h127.664l121.779-442.624L390.585 894h124.05L446.25 450.787 578.953 894H709L448.01 450.69 804.557 894z"/></g></g></svg>